<svg width="40" height="40" viewBox="0 0 40 40" fill="none" xmlns="http://www.w3.org/2000/svg">
<path d="M17.4048 0.129391C16.4517 0.254391 16.1548 0.371578 15.8892 0.723141C15.7408 0.926266 15.7251 1.05127 15.7251 2.12939C15.7251 3.30908 15.7251 3.3247 15.4751 3.84814C14.8345 5.1997 13.3267 6.02002 11.9283 5.77783C11.0142 5.62158 10.3345 5.19189 9.6392 4.34033C9.2642 3.87939 8.91264 3.71533 8.45951 3.78564C7.56107 3.91845 3.78764 7.71533 3.49076 8.77783C3.36576 9.23096 3.5142 9.62939 3.9517 9.97314C5.27982 11.0356 5.74857 12.0044 5.59232 13.3481C5.46732 14.395 4.73295 15.4497 3.78764 15.9263C3.15482 16.2388 2.58451 16.3481 1.89701 16.27C0.522012 16.1216 0.225137 16.4028 0.061074 17.9888C-0.0561135 19.0981 0.0063865 21.9966 0.154824 22.9419C0.279824 23.6763 0.436074 23.9497 0.881387 24.1685C1.15482 24.3091 1.23295 24.3091 1.8892 24.2231C3.0767 24.0591 3.93607 24.3091 4.7642 25.0669C5.49076 25.731 5.85795 26.5435 5.85014 27.4966C5.85014 28.5981 5.3892 29.5044 4.48295 30.2231C3.56107 30.9419 3.5142 31.4263 4.24857 32.4028C5.18607 33.6528 7.68607 35.9653 8.5767 36.4185C9.17826 36.731 9.64701 36.5356 10.2408 35.7388C11.8111 33.645 14.8658 33.895 16.0142 36.2231C16.272 36.7544 16.272 36.7544 16.272 37.9419C16.272 39.02 16.2876 39.145 16.4361 39.3481C16.5298 39.4653 16.7017 39.6216 16.8267 39.6997C17.3814 40.0122 20.7017 40.0981 22.5923 39.8481C23.772 39.6841 23.9595 39.606 24.2173 39.1372C24.3423 38.9106 24.3579 38.7856 24.3033 38.395C24.1939 37.5591 24.2408 36.7153 24.4283 36.2466C24.7564 35.395 25.522 34.6216 26.3892 34.2778C26.9986 34.0278 28.1158 34.0356 28.7564 34.2856C29.3267 34.5122 29.8892 34.9575 30.2954 35.5044C30.4673 35.7388 30.7173 35.9888 30.8423 36.0513C31.2017 36.2388 31.7095 36.1997 32.0611 35.9653C33.1079 35.2544 34.897 33.481 35.897 32.1606C36.4283 31.4575 36.4986 31.3247 36.5298 30.9731C36.5767 30.4497 36.4204 30.1606 35.897 29.7778C35.1236 29.1997 34.7329 28.6606 34.4829 27.8169C33.9673 26.0747 35.0845 24.1763 36.9048 23.7075C37.2173 23.6294 37.6626 23.5981 38.2642 23.6138C39.2642 23.6294 39.4751 23.5591 39.7017 23.0825C40.1158 22.2231 40.0454 17.1685 39.6079 16.2544C39.3423 15.7153 39.1861 15.6606 37.8111 15.6606C36.6001 15.6606 36.5767 15.6606 36.0689 15.4185C35.1861 14.9966 34.4829 14.145 34.2329 13.1997C33.897 11.895 34.3658 10.5591 35.4829 9.68408C35.7954 9.44189 36.0142 9.19971 36.0689 9.04346C36.2173 8.62939 36.1704 8.24658 35.9517 7.91845C35.0767 6.62939 32.7329 4.37158 31.4595 3.59814C30.897 3.25439 30.2095 3.46533 29.7486 4.14502C29.2408 4.89502 28.3814 5.41845 27.4283 5.55127C25.9829 5.75439 24.6001 4.98095 23.9361 3.59033C23.7017 3.09814 23.6939 3.05127 23.6939 1.97314C23.6939 0.754391 23.6392 0.582516 23.1392 0.293453C22.6158 -0.00342178 19.1939 -0.104984 17.4048 0.129391ZM21.3736 11.5669C22.4751 11.7388 23.8267 12.2856 24.8579 12.981C25.9126 13.6919 27.2408 15.2622 27.7251 16.3716C28.272 17.6216 28.5064 18.7153 28.5064 19.9966C28.4986 22.3247 27.6626 24.356 25.9986 26.02C24.3579 27.6685 22.3033 28.52 19.9439 28.52C18.5142 28.52 17.4048 28.2466 16.0767 27.5669C15.1548 27.0981 14.4595 26.5747 13.7798 25.8481C12.2564 24.2388 11.4673 22.231 11.4673 19.9966C11.4673 17.6528 12.3033 15.645 13.9673 13.9731C14.7329 13.1997 15.3189 12.7856 16.3345 12.3013C17.9283 11.5356 19.6079 11.2935 21.3736 11.5669Z" fill="white"/>
<path d="M19.0689 13.6685C18.5142 13.7466 17.608 14.0356 17.1314 14.27C13.8267 15.9419 12.6158 20.0356 14.483 23.2388C14.9595 24.0591 15.983 25.0747 16.7799 25.52C20.0377 27.3403 24.0377 26.1372 25.7095 22.8325C25.8267 22.6138 26.0142 22.1216 26.1236 21.7388C26.3111 21.1372 26.3345 20.9185 26.3345 19.9966C26.3345 19.0825 26.3033 18.8481 26.1236 18.2544C25.7642 17.0513 25.2174 16.1606 24.3267 15.3325C22.9439 14.0356 20.9205 13.395 19.0689 13.6685Z" fill="white"/>
</svg>
