<svg width="30" height="37" viewBox="0 0 30 37" fill="none" xmlns="http://www.w3.org/2000/svg">
<path d="M13.5547 0.0537243C9.22657 0.733412 5.85939 3.99904 5.1172 8.23341C4.96095 9.13966 4.96876 10.835 5.12501 11.7803C5.6172 14.6318 7.40626 17.2022 9.93751 18.6631C15.4219 21.8428 22.4141 19.2568 24.4766 13.2959C24.8438 12.2256 25 11.2568 25 9.98341C25 8.24122 24.6719 6.85841 23.9063 5.38185C22.5547 2.74904 20.125 0.881849 17.1875 0.202162C16.4219 0.0224743 14.3125 -0.0634632 13.5547 0.0537243Z" fill="white"/>
<path d="M9.46875 21.7022C6.96875 21.999 4.73438 23.1162 2.97656 24.9443C1.03906 26.9521 0 29.4678 0 32.1631C0 33.2021 0.117188 33.7568 0.492188 34.46C0.828125 35.1006 1.625 35.8896 2.26562 36.2021C3.3125 36.7256 2.53125 36.7021 15.2031 36.6787L26.6797 36.6553L27.1875 36.46C28.2656 36.0381 29.0703 35.3115 29.5703 34.335C29.9531 33.5693 30.0234 33.0928 29.9766 31.7725C29.8828 29.0693 28.7969 26.6631 26.7812 24.6865C25.2969 23.2334 23.5156 22.2881 21.4141 21.835C20.7031 21.6787 20.3906 21.6709 15.3516 21.6475C12.4297 21.6397 9.78125 21.6631 9.46875 21.7022Z" fill="white"/>
</svg>
