<svg width="40" height="40" viewBox="0 0 40 40" fill="none" xmlns="http://www.w3.org/2000/svg">
<path d="M25.3125 0.184166C25 0.293541 21.3438 2.37948 15.7891 5.61385L6.77344 10.8639H5.16406C4.28125 10.8639 3.32812 10.9029 3.04688 10.9498C1.71094 11.1607 0.601562 12.0982 0.15625 13.4029C0 13.8482 0 14.0514 0 25.4342C0 35.5045 0.015625 37.0592 0.117188 37.4029C0.46875 38.5748 1.42969 39.5357 2.60156 39.8873C2.94531 39.9889 5 40.0045 19.0938 40.0045C36.5156 40.0045 35.4297 40.0279 36.3047 39.5904C36.7891 39.3404 37.4766 38.6607 37.75 38.1529C38.1406 37.442 38.2031 37.0045 38.2031 35.1217C38.2031 33.2701 38.1797 33.1529 37.7891 32.8639C37.5703 32.7076 37.4688 32.6998 33.5703 32.6529C30.1484 32.6139 29.5078 32.5904 29.125 32.481C26.4766 31.692 24.5391 29.7232 23.8906 27.1373C23.6484 26.192 23.6484 24.6217 23.8906 23.731C24.6016 21.106 26.6094 19.1139 29.2266 18.4342C29.8516 18.2701 30.0859 18.2545 33.7031 18.231C37.875 18.192 37.8516 18.192 38.0859 17.7389C38.2578 17.4029 38.2578 14.192 38.0781 13.5904C37.6797 12.2389 36.6094 11.2389 35.3125 10.9967L34.875 10.9107L32.2188 6.2701C29.4062 1.34823 29.125 0.934166 28.3359 0.481041C27.4297 -0.0267715 26.2656 -0.143959 25.3125 0.184166ZM27.25 2.0826C27.4766 2.19198 27.7266 2.37948 27.8125 2.50448L27.9609 2.71542L20.9688 6.79354L13.9688 10.8639L12.3047 10.8482L10.6406 10.8248L18.0156 6.52792C22.0781 4.16073 25.5625 2.15292 25.7656 2.05917C26.2656 1.81698 26.7422 1.82479 27.25 2.0826ZM31.6797 9.19198C32.1797 10.0748 32.5781 10.8092 32.5625 10.8326C32.5391 10.8482 30.8438 10.856 28.7891 10.8482L25.0547 10.8248L27.8203 9.20761C29.3438 8.31698 30.625 7.59042 30.6719 7.5826C30.7188 7.5826 31.1719 8.30917 31.6797 9.19198Z" fill="white"/>
<path d="M29.4688 20.1607C27.0782 20.7936 25.4375 22.9576 25.4453 25.4732C25.4532 26.4654 25.5938 27.067 26.0391 27.9732C26.461 28.8482 27.4141 29.8248 28.2735 30.2701C29.5078 30.9107 29.3282 30.8951 33.7266 30.9186C37 30.942 37.711 30.9342 38.0313 30.8326C38.7969 30.6061 39.4219 30.0826 39.7578 29.3795L39.961 28.9498V25.4342V21.9186L39.7422 21.5045C39.4688 20.9811 39.0235 20.5357 38.5 20.2623L38.086 20.0436L34.0625 20.0279C30.3125 20.0123 30 20.0201 29.4688 20.1607ZM31.6016 23.8639C32.3047 24.192 32.6563 24.7389 32.6563 25.4889C32.6563 26.4498 31.8907 27.1998 30.9063 27.1998C29.6407 27.1998 28.7891 25.9107 29.3047 24.7701C29.5157 24.3014 29.7266 24.0826 30.1953 23.8639C30.6875 23.6295 31.1094 23.6295 31.6016 23.8639Z" fill="white"/>
</svg>
