<svg width="40" height="40" viewBox="0 0 40 40" fill="none" xmlns="http://www.w3.org/2000/svg">
<path d="M18.959 0.0899048C17.9902 0.410217 18.1777 0.23053 9.32617 9.06647C4.66992 13.7149 0.74805 17.6993 0.599613 17.918C0.00586253 18.8008 -0.166012 20.1446 0.169925 21.1602C0.677738 22.668 1.88086 23.5587 3.60742 23.6993L4.22461 23.754L4.24805 30.129C4.27149 36.379 4.2793 36.5118 4.43555 36.9337C5.02149 38.4805 5.99805 39.4337 7.42774 39.8555C7.79493 39.9649 8.38086 39.9805 11.6074 39.9805C15.2168 39.9805 15.373 39.9727 15.623 39.8243C15.7637 39.7383 15.9434 39.5587 16.0293 39.418C16.1777 39.168 16.1856 39.0118 16.1856 34.1993C16.1856 30.8165 16.2168 29.1368 16.2715 28.9258C16.4043 28.4571 16.7715 27.9805 17.1856 27.7383L17.5527 27.5196H20.0215H22.4902L22.8731 27.754C23.3027 28.0196 23.709 28.6212 23.7949 29.0977C23.8184 29.2618 23.8418 31.5821 23.8418 34.2618C23.8418 39.5352 23.8262 39.3321 24.2715 39.7462L24.4824 39.9415L28.2402 39.9649C30.7559 39.9805 32.1387 39.9571 32.4121 39.9024C33.4902 39.6758 34.7402 38.7227 35.2324 37.754C35.7793 36.6602 35.7481 37.1055 35.7793 30.0899L35.8027 23.7462L36.4434 23.6915C38.0137 23.5587 39.0449 22.8712 39.6934 21.543C39.9668 20.9649 39.9746 20.9415 39.9746 19.9805C39.9746 19.0118 39.9746 18.9962 39.6777 18.379C39.3809 17.754 39.3731 17.7462 30.8106 9.18365C22.2402 0.613342 22.2402 0.613342 21.6152 0.316467C21.0215 0.0352173 20.9434 0.0195923 20.1309 0.00396729C19.5762 -0.0116577 19.1621 0.0195923 18.959 0.0899048Z" fill="white"/>
</svg>
